# xmcd CD database file
#
# Track frame offsets:
#	150
#	23217
#	40449
#	67614
#	86221
#	108816
#	137203
#	159746
#	179765
#	217417
#	252384
#	274006
#	294668
#	310007
#
# Disc length: 4364 seconds
#
# Revision: 0
# Processed by: cddbd v1.5.2PL0 Copyright (c) Steve Scherf et al.
# Submitted via: jetAudio 7
#
DISCID=d6110a0e
DTITLE=Super Session (최이철 엄인호 주찬권) - Super Session
DYEAR=1900
DGENRE=Blues
TTITLE0=Again 다시시작해
TTITLE1=Because of You 니가 있으니
TTITLE2=River 강
TTITLE3=Every night 밤마다
TTITLE4=Year past 세월이 한참 흐른 뒤에야
TTITLE5=LA Blues
TTITLE6=Sea of Heartbreak 상심의 바다
TTITLE7=Noon after the rain 비 개인 오후
TTITLE8=When you leaves 당신이 떠난 뒤에도
TTITLE9=Rain, You N Blues 비, 그대 그리고 블루스
TTITLE10=Windy 바람이 불어
TTITLE11=Another Reason 서로 다른 이유 때문에
TTITLE12=Special day 아주 특별한 날
TTITLE13=Feather 날개
EXTD=
EXTT0=
EXTT1=
EXTT2=
EXTT3=
EXTT4=
EXTT5=
EXTT6=
EXTT7=
EXTT8=
EXTT9=
EXTT10=
EXTT11=
EXTT12=
EXTT13=
PLAYORDER=
